#Comment line ignore any data following # character 
#Hierarchical Translation and Rotation (.htr) file 
[Header]	
#Header keywords are followed by a single value 
FileType HTR		#Single word string
DataType HTRS		#Translation followed by rotation and scale data
FileVersion 1		#integer
NumSegments 84		#integer
NumFrames 2		#integer
DataFrameRate 30		#integer, data frame rate in this file
EulerRotationOrder ZYX
CalibrationUnits mm
RotationUnits Degrees
GlobalAxisofGravity Y
BoneLengthAxis Y
ScaleFactor 1.00
[SegmentNames&Hierarchy]
#CHILD	PARENT
MASTER GLOBAL
root MASTER
chest root
L_mid_tent01 root
R_mid_tent01 root
spine01 root
Bip01_Neck chest
L_humerus chest
R_humerus chest
weapon_bone chest
Bip01_Head Bip01_Neck
eye_left_bone Bip01_Head
eye_right_bone Bip01_Head
L_forearm L_humerus
L_front_hand L_forearm
L_weapon_bone L_forearm
L_front_hand01_01 L_front_hand
L_front_hand02_01 L_front_hand
L_front_hand03_01 L_front_hand
L_front_hand01_02 L_front_hand01_01
L_front_hand02_02 L_front_hand02_01
L_front_hand03_02 L_front_hand03_01
R_forearm R_humerus
R_front_hand R_forearm
R_weapon_bone R_forearm
R_front_hand01_01 R_front_hand
R_front_hand02_01 R_front_hand
R_front_hand03_01 R_front_hand
R_front_hand01_02 R_front_hand01_01
R_front_hand02_02 R_front_hand02_01
R_front_hand03_02 R_front_hand03_01
null_rope01_connect L_mid_tent01
Rope1_Seg01 null_rope01_connect
Rope1_Seg02 Rope1_Seg01
Rope1_Seg03 Rope1_Seg02
Rope1_Seg04 Rope1_Seg03
Rope1_Seg05 Rope1_Seg04
Rope1_Seg06 Rope1_Seg05
Rope1_Seg07 Rope1_Seg06
Rope1_Seg09 Rope1_Seg07
L_mid_hand01 Rope1_Seg09
L_mid_hand02 Rope1_Seg09
L_mid_hand03 Rope1_Seg09
null_rope02_connect R_mid_tent01
Rope2_Seg01 null_rope02_connect
Rope2_Seg02 Rope2_Seg01
Rope2_Seg03 Rope2_Seg02
Rope2_Seg04 Rope2_Seg03
Rope2_Seg05 Rope2_Seg04
Rope2_Seg06 Rope2_Seg05
Rope2_Seg07 Rope2_Seg06
Rope2_Seg09 Rope2_Seg07
R_mid_hand01 Rope2_Seg09
R_mid_hand02 Rope2_Seg09
R_mid_hand03 Rope2_Seg09
spine02 spine01
spine03 spine02
pelvis spine03
null_rope03_connect pelvis
null_rope04_connect pelvis
Rope3_Seg01 null_rope03_connect
Rope3_Seg02 Rope3_Seg01
Rope3_Seg03 Rope3_Seg02
Rope3_Seg04 Rope3_Seg03
Rope3_Seg05 Rope3_Seg04
Rope3_Seg06 Rope3_Seg05
Rope3_Seg07 Rope3_Seg06
Rope3_Seg08 Rope3_Seg07
Rope3_Seg09 Rope3_Seg08
R_rear_hand01 Rope3_Seg09
R_rear_hand02 Rope3_Seg09
R_rear_hand03 Rope3_Seg09
Rope4_Seg01 null_rope04_connect
Rope4_Seg02 Rope4_Seg01
Rope4_Seg03 Rope4_Seg02
Rope4_Seg04 Rope4_Seg03
Rope4_Seg05 Rope4_Seg04
Rope4_Seg06 Rope4_Seg05
Rope4_Seg07 Rope4_Seg06
Rope4_Seg08 Rope4_Seg07
Rope4_Seg09 Rope4_Seg08
L_rear_hand01 Rope4_Seg09
L_rear_hand02 Rope4_Seg09
L_rear_hand03 Rope4_Seg09
[BasePosition]
#SegmentName Tx, Ty, Tz, Rx, Ry, Rz, BoneLength
MASTER 0.000000 0.000000 0.000000 -90.000000 0.000000 0.000000 10.000000 
root 0.000000 0.000000 0.000000 0.000000 0.000000 0.000000 10.000000 
chest 0.000000 0.000000 0.000000 0.000000 0.000000 0.000000 10.000000 
L_mid_tent01 0.000000 0.000000 0.000000 0.000000 0.000000 0.000000 10.000000 
R_mid_tent01 0.000000 0.000000 0.000000 0.000000 0.000000 0.000000 10.000000 
spine01 0.000000 0.000000 0.000000 0.000000 0.000000 0.000000 10.000000 
Bip01_Neck 0.000000 0.000000 0.000000 0.000000 0.000000 0.000000 10.000000 
L_humerus 0.000000 0.000000 0.000000 0.000000 0.000000 0.000000 10.000000 
R_humerus 0.000000 0.000000 0.000000 0.000000 0.000000 0.000000 10.000000 
weapon_bone 0.000000 0.000000 0.000000 0.000000 0.000000 0.000000 10.000000 
Bip01_Head 0.000000 0.000000 0.000000 0.000000 0.000000 0.000000 10.000000 
eye_left_bone 0.000000 0.000000 0.000000 0.000000 0.000000 0.000000 10.000000 
eye_right_bone 0.000000 0.000000 0.000000 0.000000 0.000000 0.000000 10.000000 
L_forearm 0.000000 0.000000 0.000000 0.000000 0.000000 0.000000 10.000000 
L_front_hand 0.000000 0.000000 0.000000 0.000000 0.000000 0.000000 10.000000 
L_weapon_bone 0.000000 0.000000 0.000000 0.000000 0.000000 0.000000 10.000000 
L_front_hand01_01 0.000000 0.000000 0.000000 0.000000 0.000000 0.000000 10.000000 
L_front_hand02_01 0.000000 0.000000 0.000000 0.000000 0.000000 0.000000 10.000000 
L_front_hand03_01 0.000000 0.000000 0.000000 0.000000 0.000000 0.000000 10.000000 
L_front_hand01_02 0.000000 0.000000 0.000000 0.000000 0.000000 0.000000 10.000000 
L_front_hand02_02 0.000000 0.000000 0.000000 0.000000 0.000000 0.000000 10.000000 
L_front_hand03_02 0.000000 0.000000 0.000000 0.000000 0.000000 0.000000 10.000000 
R_forearm 0.000000 0.000000 0.000000 0.000000 0.000000 0.000000 10.000000 
R_front_hand 0.000000 0.000000 0.000000 0.000000 0.000000 0.000000 10.000000 
R_weapon_bone 0.000000 0.000000 0.000000 0.000000 0.000000 0.000000 10.000000 
R_front_hand01_01 0.000000 0.000000 0.000000 0.000000 0.000000 0.000000 10.000000 
R_front_hand02_01 0.000000 0.000000 0.000000 0.000000 0.000000 0.000000 10.000000 
R_front_hand03_01 0.000000 0.000000 0.000000 0.000000 0.000000 0.000000 10.000000 
R_front_hand01_02 0.000000 0.000000 0.000000 0.000000 0.000000 0.000000 10.000000 
R_front_hand02_02 0.000000 0.000000 0.000000 0.000000 0.000000 0.000000 10.000000 
R_front_hand03_02 0.000000 0.000000 0.000000 0.000000 0.000000 0.000000 10.000000 
null_rope01_connect 0.000000 0.000000 0.000000 0.000000 0.000000 0.000000 10.000000 
Rope1_Seg01 0.000000 0.000000 0.000000 0.000000 0.000000 0.000000 10.000000 
Rope1_Seg02 0.000000 0.000000 0.000000 0.000000 0.000000 0.000000 10.000000 
Rope1_Seg03 0.000000 0.000000 0.000000 0.000000 0.000000 0.000000 10.000000 
Rope1_Seg04 0.000000 0.000000 0.000000 0.000000 0.000000 0.000000 10.000000 
Rope1_Seg05 0.000000 0.000000 0.000000 0.000000 0.000000 0.000000 10.000000 
Rope1_Seg06 0.000000 0.000000 0.000000 0.000000 0.000000 0.000000 10.000000 
Rope1_Seg07 0.000000 0.000000 0.000000 0.000000 0.000000 0.000000 10.000000 
Rope1_Seg09 0.000000 0.000000 0.000000 0.000000 0.000000 0.000000 10.000000 
L_mid_hand01 0.000000 0.000000 0.000000 0.000000 0.000000 0.000000 10.000000 
L_mid_hand02 0.000000 0.000000 0.000000 0.000000 0.000000 0.000000 10.000000 
L_mid_hand03 0.000000 0.000000 0.000000 0.000000 0.000000 0.000000 10.000000 
null_rope02_connect 0.000000 0.000000 0.000000 0.000000 0.000000 0.000000 10.000000 
Rope2_Seg01 0.000000 0.000000 0.000000 0.000000 0.000000 0.000000 10.000000 
Rope2_Seg02 0.000000 0.000000 0.000000 0.000000 0.000000 0.000000 10.000000 
Rope2_Seg03 0.000000 0.000000 0.000000 0.000000 0.000000 0.000000 10.000000 
Rope2_Seg04 0.000000 0.000000 0.000000 0.000000 0.000000 0.000000 10.000000 
Rope2_Seg05 0.000000 0.000000 0.000000 0.000000 0.000000 0.000000 10.000000 
Rope2_Seg06 0.000000 0.000000 0.000000 0.000000 0.000000 0.000000 10.000000 
Rope2_Seg07 0.000000 0.000000 0.000000 0.000000 0.000000 0.000000 10.000000 
Rope2_Seg09 0.000000 0.000000 0.000000 0.000000 0.000000 0.000000 10.000000 
R_mid_hand01 0.000000 0.000000 0.000000 0.000000 0.000000 0.000000 10.000000 
R_mid_hand02 0.000000 0.000000 0.000000 0.000000 0.000000 0.000000 10.000000 
R_mid_hand03 0.000000 0.000000 0.000000 0.000000 0.000000 0.000000 10.000000 
spine02 0.000000 0.000000 0.000000 0.000000 0.000000 0.000000 10.000000 
spine03 0.000000 0.000000 0.000000 0.000000 0.000000 0.000000 10.000000 
pelvis 0.000000 0.000000 0.000000 0.000000 0.000000 0.000000 10.000000 
null_rope03_connect 0.000000 0.000000 0.000000 0.000000 0.000000 0.000000 10.000000 
null_rope04_connect 0.000000 0.000000 0.000000 0.000000 0.000000 0.000000 10.000000 
Rope3_Seg01 0.000000 0.000000 0.000000 0.000000 0.000000 0.000000 10.000000 
Rope3_Seg02 0.000000 0.000000 0.000000 0.000000 0.000000 0.000000 10.000000 
Rope3_Seg03 0.000000 0.000000 0.000000 0.000000 0.000000 0.000000 10.000000 
Rope3_Seg04 0.000000 0.000000 0.000000 0.000000 0.000000 0.000000 10.000000 
Rope3_Seg05 0.000000 0.000000 0.000000 0.000000 0.000000 0.000000 10.000000 
Rope3_Seg06 0.000000 0.000000 0.000000 0.000000 0.000000 0.000000 10.000000 
Rope3_Seg07 0.000000 0.000000 0.000000 0.000000 0.000000 0.000000 10.000000 
Rope3_Seg08 0.000000 0.000000 0.000000 0.000000 0.000000 0.000000 10.000000 
Rope3_Seg09 0.000000 0.000000 0.000000 0.000000 0.000000 0.000000 10.000000 
R_rear_hand01 0.000000 0.000000 0.000000 0.000000 0.000000 0.000000 10.000000 
R_rear_hand02 0.000000 0.000000 0.000000 0.000000 0.000000 0.000000 10.000000 
R_rear_hand03 0.000000 0.000000 0.000000 0.000000 0.000000 0.000000 10.000000 
Rope4_Seg01 0.000000 0.000000 0.000000 0.000000 0.000000 0.000000 10.000000 
Rope4_Seg02 0.000000 0.000000 0.000000 0.000000 0.000000 0.000000 10.000000 
Rope4_Seg03 0.000000 0.000000 0.000000 0.000000 0.000000 0.000000 10.000000 
Rope4_Seg04 0.000000 0.000000 0.000000 0.000000 0.000000 0.000000 10.000000 
Rope4_Seg05 0.000000 0.000000 0.000000 0.000000 0.000000 0.000000 10.000000 
Rope4_Seg06 0.000000 0.000000 0.000000 0.000000 0.000000 0.000000 10.000000 
Rope4_Seg07 0.000000 0.000000 0.000000 0.000000 0.000000 0.000000 10.000000 
Rope4_Seg08 0.000000 0.000000 0.000000 0.000000 0.000000 0.000000 10.000000 
Rope4_Seg09 0.000000 0.000000 0.000000 0.000000 0.000000 0.000000 10.000000 
L_rear_hand01 0.000000 0.000000 0.000000 0.000000 0.000000 0.000000 10.000000 
L_rear_hand02 0.000000 0.000000 0.000000 0.000000 0.000000 0.000000 10.000000 
L_rear_hand03 0.000000 0.000000 0.000000 0.000000 0.000000 0.000000 10.000000 
#Beginning of Data. Separated by tabs
#Fr	Tx	Ty	Tz	Rx	Ry	Rz	SF
[MASTER]
12 -0.000341 2323.688721 2487.156006 0.001660 0.001660 0.001660 3403.744141
13 -0.000378 2573.420410 2432.583252 0.001660 0.001660 0.001660 3541.179932
[root]
12 -71.357742 125.863091 1690.562866 -61.476322 -13.547727 -89.726280 1696.742798
13 -79.571846 154.117050 1694.162598 -61.479996 -15.890863 -87.335205 1703.018188
[chest]
12 -84.512650 -34.090519 0.000000 5.841978 -0.587768 155.720139 91.129311
13 -84.512650 -34.090519 0.000000 5.802969 -0.773082 157.354843 91.129311
[L_mid_tent01]
12 27.299408 22.178062 -249.918274 -12.294773 45.178101 40.800514 252.381195
13 27.299400 22.178122 -249.918304 -17.676968 40.861275 34.063488 252.381226
[R_mid_tent01]
12 23.228794 24.509907 226.238495 -86.966583 -26.115665 -14.957793 228.744751
13 23.228794 24.509907 226.238495 -85.633598 -33.140118 -18.218142 228.744751
[spine01]
12 -0.361383 -0.195265 0.000000 0.583182 0.241641 18.754946 0.410763
13 -0.361383 -0.195265 0.000000 0.560235 0.231625 18.881187 0.410763
[Bip01_Neck]
12 165.484543 71.581718 0.000119 175.896118 1.177290 24.871183 180.302734
13 165.484543 71.581718 0.000119 175.896118 1.177290 24.871180 180.302734
[L_humerus]
12 -13.983130 -135.272980 -120.471481 -164.341187 85.081314 -74.253426 181.680161
13 -13.983130 -135.272980 -120.471481 -160.320068 85.977760 -70.233978 181.680161
[R_humerus]
12 -13.983309 -135.273102 125.287651 -78.372879 -35.524715 -177.808701 184.909012
13 -13.983309 -135.273102 125.287651 -83.819519 -24.542650 177.177780 184.909012
[weapon_bone]
12 235.964890 -300.705902 0.000000 0.000000 -89.951546 -128.212341 382.234833
13 235.964890 -300.705902 0.000000 0.000000 -89.951546 -128.212341 382.234833
[Bip01_Head]
12 245.564972 166.003693 -8.836335 8.471702 5.845271 -62.456406 296.542511
13 244.635529 169.361053 -9.005312 4.991808 5.842649 -62.457806 297.675659
[eye_left_bone]
12 -24.626970 125.451866 -64.772606 0.000000 -90.000000 -99.840431 143.318359
13 -24.626970 125.451866 -64.772606 0.000000 -90.000000 -99.840431 143.318359
[eye_right_bone]
12 -24.626970 125.451866 64.327362 0.000000 -89.960434 80.159386 143.117676
13 -24.626970 125.451866 64.327362 0.000000 -89.960434 80.159386 143.117676
[L_forearm]
12 322.776093 0.000000 -0.000119 0.000242 -0.002335 -101.838821 322.776093
13 322.776093 0.000000 -0.000119 0.000248 -0.002334 -102.137344 322.776093
[L_front_hand]
12 241.149185 -0.042021 -3.300071 -178.667953 -1.835447 -27.422342 241.171753
13 241.149185 -0.042021 -3.300071 -178.667953 -1.835447 -27.422342 241.171753
[L_weapon_bone]
12 156.183838 0.000000 0.000000 0.000014 0.000007 0.000001 156.183838
13 156.183838 0.000000 0.000000 0.000014 0.000007 0.000001 156.183838
[L_front_hand01_01]
12 86.095154 20.947098 -0.655860 -0.366594 -0.477154 75.385582 88.609184
13 86.095154 20.947098 -0.655860 -0.366594 -0.477154 75.385574 88.609184
[L_front_hand02_01]
12 86.935165 -11.437475 24.513514 154.403519 -59.888931 -61.371990 91.046425
13 86.935165 -11.437475 24.513514 154.403519 -59.888931 -61.371990 91.046425
[L_front_hand03_01]
12 86.637497 -14.123976 -20.424902 -153.913849 58.118122 -62.702866 90.126129
13 86.637497 -14.123976 -20.424902 -153.913849 58.118122 -62.702866 90.126129
[L_front_hand01_02]
12 71.020905 -0.000179 0.000030 0.000334 -0.002323 -106.379684 71.020905
13 71.020905 -0.000179 0.000030 0.000334 -0.002323 -106.379684 71.020905
[L_front_hand02_02]
12 71.020927 -0.000119 0.000060 0.000334 -0.002323 -106.379684 71.020927
13 71.020927 -0.000119 0.000060 0.000334 -0.002323 -106.379684 71.020927
[L_front_hand03_02]
12 71.020905 -0.000060 0.000060 0.000334 -0.002323 -106.379684 71.020905
13 71.020905 -0.000060 0.000060 0.000334 -0.002323 -106.379684 71.020905
[R_forearm]
12 322.776428 -0.000060 0.000030 0.203999 0.055391 -106.453468 322.776428
13 322.776428 -0.000060 0.000030 0.213159 0.008533 -93.967392 322.776428
[R_front_hand]
12 238.847015 -0.006795 2.210259 -18.700394 -0.217920 -17.397156 238.857239
13 238.847015 -0.006795 2.210259 -16.661974 0.457661 -14.287452 238.857239
[R_weapon_bone]
12 155.664093 0.002503 -0.000030 0.003487 0.001180 -90.988930 155.664078
13 155.664093 0.002503 -0.000030 0.003487 0.001180 -90.988930 155.664078
[R_front_hand01_01]
12 87.624611 14.231146 22.918642 -116.960205 3.496175 -1.323883 91.683487
13 87.624611 14.231146 22.918642 -154.633499 -59.950615 61.746044 91.683487
[R_front_hand02_01]
12 89.356956 14.367283 -19.491137 118.419624 -4.256595 0.610096 92.579636
13 89.356956 14.367283 -19.491137 154.602676 58.302864 63.744400 92.579636
[R_front_hand03_01]
12 87.286232 -22.307278 -0.143439 -0.387967 -0.231466 4.231439 90.091743
13 87.286232 -22.307278 -0.143439 0.162155 -0.423168 -75.767921 90.091743
[R_front_hand01_02]
12 71.020905 0.000060 0.000119 0.001777 0.001534 8.377220 71.020905
13 71.020905 0.000060 0.000119 0.001777 0.001534 8.377220 71.020905
[R_front_hand02_02]
12 71.020844 -0.000030 -0.000119 0.001777 0.001534 8.377220 71.020836
13 71.020844 -0.000030 -0.000119 0.001777 0.001534 8.377220 71.020836
[R_front_hand03_02]
12 71.020905 0.000000 0.000030 0.001777 0.001534 8.377220 71.020905
13 71.020905 0.000000 0.000030 0.001777 0.001534 8.377220 71.020905
[null_rope01_connect]
12 328.732483 0.000000 -0.000238 -105.252701 -64.206680 156.807846 328.732483
13 328.732483 0.000000 -0.000238 -103.519165 -69.517021 163.452408 328.732483
[Rope1_Seg01]
12 0.000000 0.000000 0.000000 126.975731 22.333096 -159.079544 0.000000
13 0.000000 0.000000 0.000000 123.543945 19.790955 -155.617905 0.000000
[Rope1_Seg02]
12 139.999863 -0.000179 0.000000 25.748768 -31.131283 -7.730902 139.999863
13 139.999863 -0.000179 0.000000 30.634033 -30.944595 -10.680063 139.999863
[Rope1_Seg03]
12 139.999924 0.000060 -0.000060 5.473834 -31.320889 5.102684 139.999924
13 139.999924 0.000060 -0.000060 6.695550 -30.430685 4.717197 139.999924
[Rope1_Seg04]
12 139.999924 -0.000060 -0.000119 -0.912616 -16.330362 5.600869 139.999924
13 139.999924 -0.000060 -0.000119 -0.580338 -16.829166 6.500325 139.999924
[Rope1_Seg05]
12 139.999832 0.000119 -0.000060 -3.925144 -17.794884 9.626486 139.999832
13 139.999832 0.000119 -0.000060 -3.755773 -18.435822 10.232635 139.999832
[Rope1_Seg06]
12 139.999954 0.000119 -0.000060 -5.931110 -15.214230 7.778471 139.999954
13 139.999954 0.000119 -0.000060 -4.524920 -13.230230 6.553512 139.999954
[Rope1_Seg07]
12 139.999985 0.000060 0.000000 -4.297849 -7.365288 2.629336 139.999985
13 139.999985 0.000060 0.000000 -3.420563 -7.024572 2.695421 139.999985
[Rope1_Seg09]
12 121.602913 0.000119 -0.000089 -89.793175 -1.359789 0.847147 121.602913
13 121.602913 0.000119 -0.000089 -89.793175 -1.359789 0.847147 121.602913
[L_mid_hand01]
12 103.859421 1.038730 8.195221 114.520294 -53.310486 -20.623241 104.187431
13 103.859421 1.038730 8.195221 114.520287 -53.310486 -20.623234 104.187431
[L_mid_hand02]
12 105.572853 -4.139662 -10.864139 -155.067673 38.166626 -52.448818 106.211075
13 105.572853 -4.139662 -10.864139 -155.067673 38.166618 -52.448807 106.211075
[L_mid_hand03]
12 104.641464 17.579376 -3.913581 -10.970130 15.317461 57.626949 106.179977
13 104.641464 17.579376 -3.913581 -10.970130 15.317461 57.626949 106.179977
[null_rope02_connect]
12 328.732849 0.000179 -0.000119 -150.768311 -30.486567 -71.066093 328.732849
13 328.732849 0.000179 -0.000119 -146.969177 -32.438320 -62.918514 328.732849
[Rope2_Seg01]
12 -0.000010 -0.000074 0.000045 20.043818 -24.111948 -39.550079 0.000088
13 -0.000007 -0.000095 0.000049 28.690132 -27.105789 -45.957024 0.000107
[Rope2_Seg02]
12 139.999741 -0.000060 -0.000119 -12.773562 3.451880 13.134127 139.999756
13 139.999741 -0.000060 -0.000119 -13.515535 3.461465 16.473436 139.999756
[Rope2_Seg03]
12 140.000107 0.000030 0.000000 -19.658470 -2.760135 37.755585 140.000107
13 140.000107 0.000030 0.000000 -17.956644 -6.918573 45.106800 140.000107
[Rope2_Seg04]
12 139.999802 0.000000 -0.000060 -6.751882 -11.186917 41.829697 139.999802
13 139.999802 0.000000 -0.000060 0.334014 -6.204736 39.910080 139.999802
[Rope2_Seg05]
12 139.999985 -0.000060 0.000119 9.651899 9.534401 31.954494 139.999985
13 139.999985 -0.000060 0.000119 13.892113 13.846892 34.731327 139.999985
[Rope2_Seg06]
12 139.999893 -0.000030 -0.000119 3.694951 4.826179 13.196140 139.999893
13 139.999893 -0.000030 -0.000119 3.477386 5.818133 12.005623 139.999893
[Rope2_Seg07]
12 139.999893 0.000060 -0.000060 1.523080 2.142544 5.865162 139.999893
13 139.999893 0.000060 -0.000060 1.327444 2.836685 5.335228 139.999893
[Rope2_Seg09]
12 121.338966 0.000089 -0.000060 94.622429 0.398011 -1.535633 121.338966
13 121.338966 0.000089 -0.000060 102.264580 0.476992 -1.525705 121.338966
[R_mid_hand01]
12 104.680779 11.144459 -10.335981 -45.231022 16.233332 18.229738 105.778534
13 104.680779 11.144459 -10.335981 -31.189335 37.773026 48.068108 105.778534
[R_mid_hand02]
12 104.070427 2.443552 8.231699 74.704796 -19.933538 5.861593 104.424065
13 104.070427 2.443552 8.231699 66.183014 -52.103355 19.743057 104.424065
[R_mid_hand03]
12 106.028137 -11.221827 -5.996406 -165.892441 7.220818 -23.862425 106.788818
13 106.028137 -11.221827 -5.996406 -172.283524 13.841950 -57.761921 106.788818
[spine02]
12 129.756927 0.001550 0.000119 -0.249806 -11.748045 -4.324005 129.756927
13 129.756927 0.001550 0.000119 -0.253971 -12.444942 -4.319843 129.756927
[spine03]
12 78.557358 0.094579 -5.450618 0.804744 4.772793 1.926226 78.746277
13 78.557457 0.094452 -5.449721 0.849697 4.741182 2.484861 78.746315
[pelvis]
12 169.435242 0.051022 0.000000 -0.054863 -0.468621 5.342280 169.435257
13 169.435242 0.051022 0.000000 -0.055636 -0.456117 5.680965 169.435257
[null_rope03_connect]
12 -1.257226 -2.466202 137.391083 26.662315 -57.994316 56.872013 137.418976
13 -1.257226 -2.466202 137.391083 33.321228 -56.412922 51.112717 137.418976
[null_rope04_connect]
12 -1.259640 -2.480268 -137.844437 26.662315 -57.994316 56.872013 137.872513
13 -1.259640 -2.480268 -137.844437 33.321228 -56.412922 51.112717 137.872513
[Rope3_Seg01]
12 -0.000026 -0.000208 0.000000 -138.635620 -32.161343 -66.353073 0.000210
13 -0.000026 -0.000224 0.000000 -141.345596 -39.851475 -66.093407 0.000225
[Rope3_Seg02]
12 139.999924 -0.000119 0.000060 -3.636101 7.383179 -6.513550 139.999924
13 139.999924 -0.000119 0.000060 -3.189625 6.930180 -4.946306 139.999924
[Rope3_Seg03]
12 139.999924 -0.000119 0.000119 -12.314528 20.985682 -16.746145 139.999924
13 139.999924 -0.000119 0.000119 -7.480778 15.355751 -10.049170 139.999924
[Rope3_Seg04]
12 139.999924 0.000119 0.000000 -16.801046 37.873737 -19.923615 139.999924
13 139.999924 0.000119 0.000000 -11.470722 31.425510 -13.287166 139.999924
[Rope3_Seg05]
12 139.999924 -0.000238 0.000060 -10.599530 35.822380 -22.147791 139.999924
13 139.999924 -0.000238 0.000060 -6.297875 30.414150 -14.089326 139.999924
[Rope3_Seg06]
12 139.999893 -0.000119 -0.000060 -5.261757 30.935873 -19.429792 139.999893
13 139.999893 -0.000119 -0.000060 -9.628145 39.720524 -28.644262 139.999893
[Rope3_Seg07]
12 139.999771 0.000060 -0.000119 0.451834 9.385367 -4.617249 139.999771
13 139.999771 0.000060 -0.000119 0.050966 16.276970 -9.343992 139.999771
[Rope3_Seg08]
12 139.999985 -0.000060 0.000000 0.681651 4.046135 -2.047955 139.999985
13 139.999985 -0.000060 0.000000 0.788082 5.512088 -3.109978 139.999985
[Rope3_Seg09]
12 90.185997 -0.000179 -0.000060 72.724998 -1.359426 -0.845302 90.185997
13 90.185997 -0.000179 -0.000060 71.324867 -1.362137 -0.847584 90.185997
[R_rear_hand01]
12 103.366196 -6.073594 -10.757982 -177.714127 24.565960 -73.910805 104.101845
13 103.366196 -6.073594 -10.757982 -169.737839 22.551638 -54.126343 104.101845
[R_rear_hand02]
12 100.509819 12.039542 -7.992327 -12.874932 36.868465 72.167053 101.543350
13 100.509819 12.039542 -7.992327 -24.598360 30.936037 51.336994 101.543350
[R_rear_hand03]
12 101.539970 5.215704 5.435467 71.484772 -71.816536 21.513685 101.819031
13 101.539970 5.215704 5.435467 80.282967 -54.075653 11.757504 101.819031
[Rope4_Seg01]
12 -0.000013 -0.000235 -0.000153 81.449219 -29.959730 -160.969727 0.000281
13 -0.000013 -0.000250 -0.000153 83.606239 -35.086658 -155.893814 0.000293
[Rope4_Seg02]
12 139.999985 0.000060 0.000119 -0.471254 -6.862568 -3.934559 139.999985
13 139.999985 0.000060 0.000119 -0.357281 -6.287243 -3.659556 139.999985
[Rope4_Seg03]
12 139.999924 0.000000 -0.000238 -4.980727 -13.506760 -8.105144 139.999924
13 139.999924 0.000000 -0.000238 -2.100264 -12.403197 -7.488162 139.999924
[Rope4_Seg04]
12 139.999985 0.000000 0.000119 -151.758255 -23.058369 -24.665007 139.999985
13 139.999985 0.000000 0.000119 -143.595734 -22.919827 -23.867167 139.999985
[Rope4_Seg05]
12 139.999802 -0.000060 -0.000119 -6.139766 30.825060 6.420505 139.999802
13 139.999802 -0.000060 -0.000119 -26.239595 35.823761 -7.800512 139.999802
[Rope4_Seg06]
12 139.999924 0.000000 0.000060 -8.700315 28.015402 -7.039875 139.999924
13 139.999924 0.000000 0.000060 -10.355061 30.448820 -7.058815 139.999924
[Rope4_Seg07]
12 139.999802 0.000000 0.000000 -0.454878 16.939602 -1.051103 139.999802
13 139.999802 0.000000 0.000000 -0.188759 12.612240 1.428809 139.999802
[Rope4_Seg08]
12 139.999924 0.000000 0.000119 -1.014206 7.293941 0.234380 139.999924
13 139.999924 0.000000 0.000119 -1.336048 5.650521 0.688441 139.999924
[Rope4_Seg09]
12 90.185791 0.000060 0.000060 -135.617828 2.228885 0.850567 90.185791
13 90.185791 0.000060 0.000060 -135.617828 2.228885 0.850567 90.185791
[L_rear_hand01]
12 101.696655 -8.392275 -7.654577 -19.915012 -33.950886 119.950104 102.329041
13 101.696655 -8.392275 -7.654577 -19.915012 -33.950886 119.950104 102.329041
[L_rear_hand02]
12 102.726799 -1.568258 5.773216 77.862221 61.878510 165.399185 102.900848
13 102.726799 -1.568258 5.773216 77.862236 61.878510 165.399200 102.900848
[L_rear_hand03]
12 104.552910 9.721220 -10.420293 -173.099182 -23.740309 -117.327911 105.519653
13 104.552910 9.721220 -10.420293 -173.099182 -23.740307 -117.327896 105.519653
